<mxfile host="65bd71144e">
    <diagram id="uKswb0lQghz5tNpVuYvl" name="Page-1">
        <mxGraphModel dx="554" dy="745" grid="1" gridSize="10" guides="1" tooltips="1" connect="1" arrows="1" fold="1" page="1" pageScale="1" pageWidth="827" pageHeight="1169" background="none" math="0" shadow="0">
            <root>
                <mxCell id="0"/>
                <mxCell id="1" parent="0"/>
                <mxCell id="2" value="&lt;ul&gt;&lt;li&gt;recieve webhook&lt;br&gt;&lt;/li&gt;&lt;li&gt;choose api from passphase&lt;/li&gt;&lt;li&gt;api check balance&lt;br&gt;&lt;br&gt;&lt;br&gt;&lt;/li&gt;&lt;li&gt;convert position amount (USDT) to target coin&lt;/li&gt;&lt;li&gt;send order&lt;/li&gt;&lt;/ul&gt;" style="text;strokeColor=none;fillColor=none;html=1;whiteSpace=wrap;verticalAlign=middle;overflow=hidden;" parent="1" vertex="1">
                    <mxGeometry x="30" y="420" width="360" height="180" as="geometry"/>
                </mxCell>
                <mxCell id="4" value="&lt;div&gt;{&lt;/div&gt;&lt;div&gt;&quot;passphrase&quot;:&quot;Pooh12345&quot;,&lt;/div&gt;&lt;div&gt;&quot;symbol&quot;:&quot;BTCUSDT&quot;,&lt;/div&gt;&lt;div&gt;&quot;side&quot;:&quot;BUY&quot;,&lt;/div&gt;&lt;div&gt;&lt;br&gt;&lt;/div&gt;&lt;div&gt;&quot;buy_ratio_percent&quot;:&quot;100&quot;,&lt;/div&gt;&lt;div&gt;&quot;buy_fixed _amount_USDT&quot;:&quot;20&quot;,&lt;/div&gt;&lt;div&gt;&quot;buy_choose_fixed_or_ratio&quot;:&quot;fixed&quot;,&lt;/div&gt;&lt;div&gt;&lt;br&gt;&lt;/div&gt;&lt;div&gt;&quot;sell_ratio_percent&quot;:&quot;100&quot;,&lt;/div&gt;&lt;div&gt;&quot;sell_fixed_amount_USDT&quot;:&quot;20&quot;,&lt;/div&gt;&lt;div&gt;&quot;sell_choose_fixed_or_ratio&quot;:&quot;ratio&quot;,&lt;/div&gt;&lt;div&gt;&lt;br&gt;&lt;/div&gt;&lt;div&gt;&quot;take_profit_percent&quot;:&quot;30&quot;,&lt;/div&gt;&lt;div&gt;&quot;stop_loss_percent&quot;:&quot;20&quot;,&lt;/div&gt;&lt;div&gt;&lt;br&gt;&lt;/div&gt;&lt;div&gt;&quot;trailing_stop_(no/historical/callback)&quot;:&quot;no&quot;,&lt;/div&gt;&lt;div&gt;&quot;trailing_stop_activation_percent&quot;:&quot;20&quot;,&lt;/div&gt;&lt;div&gt;&quot;historical_bar&quot;:&quot;10&quot;,&lt;/div&gt;&lt;div&gt;&quot;callback_rate&quot;:&quot;20&quot;&lt;/div&gt;&lt;div&gt;}&lt;/div&gt;" style="shape=ext;double=1;rounded=0;whiteSpace=wrap;html=1;" parent="1" vertex="1">
                    <mxGeometry x="50" y="50" width="270" height="350" as="geometry"/>
                </mxCell>
                <mxCell id="5" value="webhook" style="text;strokeColor=none;fillColor=none;html=1;fontSize=24;fontStyle=1;verticalAlign=middle;align=center;" parent="1" vertex="1">
                    <mxGeometry x="40" width="280" height="40" as="geometry"/>
                </mxCell>
            </root>
        </mxGraphModel>
    </diagram>
</mxfile>